PathFileType	4	(X/Y/Z)	Patient4_TMGait_0pt5_01_left_12.trc.trc
DataRate	CameraRate	NumFrames	NumMarkers	Units	OrigDataRate	OrigDataStartFrame	OrigNumFrames
76.502732240437	76.502732240437	4	33	mm	76.502732240437	36	       141
Frame#	Time	L.ASIS			Sacral			L.Shoulder			Chest			R.Shoulder			Neck			R.ASIS			R.Thigh.Superior			R.Thigh.Lateral			R.Thigh.Inferior			R.Patella			L.Thigh.Superior			L.Thigh.Lateral			L.Thigh.Inferior			L.Patella			L.Shank.Superior			L.Shank.Lateral			L.Shank.Inferior			R.Shank.Superior			R.Shank.Lateral			R.Shank.Inferior			R.Heel			R.Midfoot.Superior			R.Midfoot.Lateral			R.Toe			L.Heel			L.Midfoot.Lateral			L.Midfoot.Superior			L.Toe			L.Elbow			L.Wrist			R.Elbow			R.Wrist			
		X1	Y1	Z1	X2	Y2	Z2	X3	Y3	Z3	X4	Y4	Z4	X5	Y5	Z5	X6	Y6	Z6	X7	Y7	Z7	X8	Y8	Z8	X9	Y9	Z9	X10	Y10	Z10	X11	Y11	Z11	X12	Y12	Z12	X13	Y13	Z13	X14	Y14	Z14	X15	Y15	Z15	X16	Y16	Z16	X17	Y17	Z17	X18	Y18	Z18	X19	Y19	Z19	X20	Y20	Z20	X21	Y21	Z21	X22	Y22	Z22	X23	Y23	Z23	X24	Y24	Z24	X25	Y25	Z25	X26	Y26	Z26	X27	Y27	Z27	X28	Y28	Z28	X29	Y29	Z29	X30	Y30	Z30	X31	Y31	Z31	X32	Y32	Z32	X33	Y33	Z33	

36	16.497500000000	798.852235167976	949.429562976161	297.242999262755	592.902333862414	1006.665586467111	463.273969360028	754.889061447950	1419.033832299808	251.191514230829	868.742099410304	1356.928056685823	407.599197567586	800.263647474512	1443.341269462863	582.967589993479	769.133547679849	1490.483327916246	397.427893426280	821.078968450696	940.419767108426	571.592944796590	849.783941352889	731.142694049102	548.109368055728	764.054988399473	626.010218505388	612.575816657551	836.675165019125	564.420794853012	534.221310953416	825.155262007255	459.955407861573	549.141996801061	869.563035509143	760.883953989268	329.308688935483	798.247496675017	635.914050012282	271.285483880835	895.449092781672	571.399834074224	332.685855117045	905.858826772079	500.282489051448	341.182338658736	885.185644023835	425.351474708508	334.106620683883	804.734036867121	303.147762843628	287.143460147099	869.271774098896	197.909782515690	356.758641472183	759.081163206967	388.366479205568	556.249038191519	650.741131393724	326.243369103938	620.223459487030	653.014759360327	219.106601847788	565.957254412775	464.846465760077	106.116514840440	541.464664401142	643.225782983598	112.222497808517	583.495397709955	539.861946566314	78.618622932653	618.778258410037	740.101737668795	34.066363923238	619.905248720902	752.323164495724	37.385426965865	401.531343931262	826.250868657120	34.671531129462	320.029528662240	908.284279374813	97.686927164832	345.384410161094	1036.970975774947	49.171317432796	318.889258875018	683.704981854761	1060.449777599241	167.922402863685	698.838007951621	801.849707415334	178.798116746597	854.984836992642	1104.045710256221	705.343498463539	1099.825939618791	1065.783669586496	654.907119875417	
37	16.510571428571	799.534787005894	950.686285484015	295.527320074172	592.730269174432	1007.540595728562	460.444697080681	755.846105183537	1419.857541499771	248.441126192851	868.692458578076	1358.151165614244	405.732974468093	798.991465475708	1444.858468908191	580.465966311698	769.007291054827	1491.558489864401	394.599598415554	820.613941912299	941.797731097480	569.871320336822	854.078362013072	734.176625098275	546.230736742078	771.049391760814	627.225935289195	610.826834546862	845.850880433873	566.736373294446	533.032639893891	835.624456307622	460.628014962534	549.132796983816	868.495594224733	760.269016651232	327.436715636374	796.045720430245	636.080981708745	270.073219891415	892.170428584866	570.692771422310	332.127894608993	901.826094392474	499.725383184681	340.928476720151	880.844853056330	424.977952404927	333.769849189663	800.013172260587	303.122868081807	286.745914944888	863.551012942641	197.721825676711	356.841784051927	767.107085337771	390.079514800287	555.536633930448	656.180508872651	331.734494764064	618.650310327597	655.636358633179	224.270853278488	565.121130047368	464.114324001171	118.516317164073	539.460884110097	642.396053259165	116.624177366721	583.081446586611	537.198839625974	87.931759176424	617.456516639633	735.044284518958	34.099086134416	620.335852653544	745.895237343704	37.352632026121	401.484307162660	819.821463868285	34.743015895343	320.020524579619	901.826153773407	97.699467224918	345.468535611427	1030.509090469176	49.299936413671	318.861503022249	691.050920085301	1060.362872344333	163.056206815781	712.868187304056	802.150176169613	172.932917146840	845.563781197794	1104.154902249975	703.379996749834	1088.525690401421	1051.813254506325	653.517767579489	
38	16.523642857143	800.047324444274	951.894906194576	293.780457323960	592.441480472899	1008.268579236237	457.692928907623	756.652630428338	1420.722735692152	245.939327377890	868.485104173498	1359.349880948649	404.093487198468	797.478305412006	1446.160910161937	578.254330193280	768.705095792993	1492.584186944721	392.069925902240	820.150577245045	943.090936261662	568.093597477892	858.402231407444	737.353808921086	544.239115682833	778.248652463648	628.687300249619	609.172115318552	855.027894055466	569.356623445598	531.802302399612	846.187612180558	461.755601865083	549.036862873444	867.251640791807	759.588042225254	325.698326251318	793.750403585726	636.178101449018	268.899528895785	888.771433438306	569.939972989960	331.652998564994	897.626071100204	499.107504781332	340.739537722596	876.372270650638	424.568736074267	333.495308102061	795.231580657829	303.034508476428	286.361712304336	857.777760251827	197.500486452387	356.964616231166	775.427809725281	392.095855049412	554.864410663131	662.087657341198	337.516558945860	617.076546179789	658.761561187473	229.813635944529	564.271015447625	464.265323019316	131.282474454199	537.272487932557	642.063144700100	121.592841532777	582.678597350617	535.228377285975	97.812572884511	616.085510513264	730.413768960038	34.776217750183	620.995824608706	739.432525150923	37.342235152681	401.464845555626	813.346982684017	34.800420262795	320.033104132118	895.376346360206	97.644496980619	345.568864374137	1024.040685022758	49.225694508982	318.816446628500	698.398146259936	1060.516757499962	158.194433731203	727.523840185043	802.901574250266	167.008096039427	835.838900206239	1104.216117386940	701.593059443206	1076.017983845421	1036.991390304688	652.573372461848	
39	16.536714285714	800.404383945087	953.020828064408	291.979223446490	592.052024495050	1008.833653086554	455.026836176989	757.270892819605	1421.607038600183	243.698489840780	868.120670761953	1360.498748741410	402.669164234410	795.759122274741	1447.216162644369	576.338098248698	768.224206055090	1493.539655192684	389.854306299111	819.711089104121	944.283238162031	566.244807118994	862.660632189254	740.619318947123	542.124678911384	785.530581809097	630.379211604503	607.606624098623	864.045370375775	572.252056818740	530.503750166222	856.699319032758	463.315292846207	548.817511706202	865.934640948085	758.886615683898	324.064825240666	791.448632674940	636.212869741259	267.748010984631	885.361932293014	569.158869159396	331.203070277045	893.388637820666	498.443596401103	340.573300302030	871.882572715551	424.121649852273	333.258230367668	790.470455849608	302.897013277068	285.964618584901	852.001887169559	197.240136484228	357.107799723963	783.912242065853	394.381208724865	554.225662371867	668.358170950578	343.489553580205	615.530000649683	662.342443333883	235.625916242269	563.435101200737	465.291840312959	144.113550448758	534.991712178945	642.246012277500	127.045249883502	582.314316974013	534.016095535183	108.031744264455	614.717339664114	726.355326138480	36.180035846282	621.873260607080	732.935667883193	37.351876211368	401.461684088220	806.833979589840	34.845129079726	320.058582437961	888.938284230851	97.528647172263	345.684512873466	1017.571069603486	48.961555063861	318.766075528088	705.721068734465	1060.887795885452	153.383583322224	742.702046769592	804.124756343247	161.057631836796	825.929513513610	1104.193032945108	699.972737226324	1062.240794986015	1021.389556366611	652.130848093714	
